<?xml version="1.0" encoding="UTF-8"?>
<svg id="Calque_1" data-name="Calque 1" xmlns="http://www.w3.org/2000/svg" viewBox="0 0 58.03 46.6">
  <defs>
    <style>
      .cls-1 {
        fill: #fbfbfb;
      }
    </style>
  </defs>
  <path class="cls-1" d="M57.37,19.52c-.17-1.68-.25-3.28-.25-4.78,0-.39-.08-.68-.23-.84-.16-.17-.35-.26-.6-.26-.31.03-.63.06-.96.1-2.3.27-4.58.41-6.84.41h-12.85c-.5-.03-1-.05-1.52-.05-.25-.03-.49-.04-.74-.04-.06.09-.09.21-.11.36-.02.16.03.31.14.46.1.16.31.28.61.37.68.15,1.18.32,1.5.5.32.19.56.48.71.88.15.39.23,1.01.23,1.83v9.97L25.58,2.59c-.31-.8-.61-1.37-.9-1.73-.29-.35-.68-.59-1.16-.7-.49-.11-1.22-.16-2.19-.16h-4.05c-.14,0-.25.1-.33.3-.09.2-.09.41,0,.63.08.22.3.37.66.46h.07c.26.13.47.27.63.4.15.13.29.38.43.73l.54,1.28c.03.21.05.44.05.68,0,.55-.08,1.09-.26,1.63L4.8,40.43c-.4.97-.74,1.71-1.03,2.22-.29.51-.59.92-.9,1.23-.31.22-.63.41-.96.56-.33.16-.7.3-1.1.43-.35.1-.58.27-.69.53-.11.27-.15.53-.1.77.04.24.09.38.13.43.53,0,1.04-.02,1.53-.07.22-.04.5-.06.86-.06h4.38c.62,0,1.11.02,1.46.06.89.05,1.77.07,2.66.07.09,0,.15-.13.2-.4.04-.26-.04-.53-.24-.8-.2-.26-.58-.43-1.16-.53-1.24-.22-2.12-.45-2.65-.69-.54-.25-.86-.65-.96-1.2-.12-.55.07-1.4.56-2.55l2.46-5.91c.22-.35.43-.59.62-.7.2-.11.53-.17.97-.17,2.21.05,4.39.06,6.54.04,2.14-.02,4.3-.04,6.47-.04h6.57c.53,0,.92.06,1.16.17.25.11.46.35.63.7,0-.02.01-.04.01-.06l2.52,5.97c.48,1.15.68,2,.59,2.55-.09.55-.37.95-.86,1.2-.49.24-1.33.47-2.52.69-.58.1-.95.27-1.13.53-.18.27-.24.54-.2.8.05.27.09.4.14.4h15.33c.09-.27.12-.51.1-.73-.02-.22-.09-.42-.2-.6-.11-.17-.3-.3-.56-.4-.4-.13-.77-.27-1.1-.43-.33-.15-.63-.36-.9-.63-.31-.31-.61-.72-.89-1.23-.29-.5-.63-1.22-1.03-2.15l-.64-1.52v-6.9c0-.31.07-.59.23-.83.15-.25.39-.37.73-.37.49,0,1.28.01,2.36.02,1.09.02,1.95.06,2.6.12.49.06.85.17,1.08.32.23.15.44.48.64.96.2.49.45,1.33.76,2.53.06.25.19.42.41.53.21.11.43.14.67.11.22-.03.37-.07.43-.14-.24-1.65-.39-3.35-.43-5.11-.05-1.76.05-3.41.3-4.94-.25-.15-.54-.19-.88-.11-.33.07-.58.37-.73.89-.25,1.04-.45,1.78-.62,2.2-.17.43-.37.72-.6.85-.23.14-.57.24-1.03.3-.89.06-1.82.11-2.78.14-.96.03-1.69.05-2.18.05-.34,0-.58-.14-.73-.42-.16-.27-.23-.56-.23-.87v-11.38c0-.52.08-.89.25-1.11.17-.21.45-.32.85-.32,2.63,0,4.86.02,6.68.05,1.82.03,3.08.1,3.78.21.71.1,1.21.29,1.52.57.43.37.76.88.99,1.54.23.66.48,1.79.75,3.42.16.95.31,1.9.46,2.84.07.46.28.76.64.9.37.14.79.16,1.24.07-.27-1.99-.49-3.83-.66-5.51ZM30.66,31.46c-.12.23-.35.33-.7.33H11.5c-.31,0-.53-.1-.66-.33-.1-.17-.12-.36-.07-.61h0S20.65,7.05,20.65,7.05l10,23.7s-.02-.01-.03-.01c.14.26.14.5.04.72Z"/>
</svg>